<?xml version="1.0" encoding="utf-8"?>
<!-- Generator: Adobe Illustrator 18.1.1, SVG Export Plug-In . SVG Version: 6.00 Build 0)  -->
<!DOCTYPE svg PUBLIC "-//W3C//DTD SVG 1.1//EN" "http://www.w3.org/Graphics/SVG/1.1/DTD/svg11.dtd">
<svg version="1.1" id="Calque_1" xmlns="http://www.w3.org/2000/svg" xmlns:xlink="http://www.w3.org/1999/xlink" x="0px" y="0px"
	 width="29px" height="27px" viewBox="0 0 29 27" style="enable-background:new 0 0 29 27;" xml:space="preserve">
<style type="text/css">
	.st0{fill:#B6BCC0;}
</style>
<g>
	<g>
		<path class="st0" d="M13.2,23c-1.1,0-2,0.9-2,2s0.9,2,2,2c1.1,0,2-0.9,2-2S14.3,23,13.2,23z M13.2,25.5c-0.3,0-0.5-0.2-0.5-0.5
			s0.2-0.5,0.5-0.5c0.3,0,0.5,0.2,0.5,0.5C13.7,25.3,13.5,25.5,13.2,25.5z M22.7,23c-1.1,0-2,0.9-2,2s0.9,2,2,2c1.1,0,2-0.9,2-2
			S23.8,23,22.7,23z M22.7,25.5c-0.3,0-0.5-0.2-0.5-0.5s0.2-0.5,0.5-0.5c0.3,0,0.5,0.2,0.5,0.5C23.2,25.3,23,25.5,22.7,25.5z
			 M25.8,20.8H10.1c-0.4,0-0.8,0.3-0.8,0.8c0,0.4,0.3,0.8,0.8,0.8h15.8c0.4,0,0.8-0.3,0.8-0.8C26.6,21.2,26.3,20.8,25.8,20.8z
			 M28.7,7.3c-0.3-0.4-1.3-0.6-1.3-0.6c0,0-0.1,0-0.2,0L8,6.7c0,0-0.1,0-0.2,0L7.7,6.6c0,0-0.1-0.1-0.1-0.1L6.6,1.8
			c0,0-0.2-1.8-2.2-1.8H0.8C0.3,0,0,0.3,0,0.8c0,0.4,0.3,0.8,0.8,0.8h3.6c0.6,0,0.7,0.5,0.7,0.6l1.2,6.2c0,0,0,0.1,0,0.2
			c0,0,1.4,7.2,1.9,9.6c0,0,0.1,1.8,2.2,1.8h14.4c2.1,0,2.2-1.5,2.2-1.8c0.4-2.3,1.8-9.3,1.8-9.3c0,0,0-0.1,0-0.2
			C29,8.6,29,7.7,28.7,7.3z M8.8,12.1C8.8,12.1,8.7,12,8.8,12.1L8,8.3c0,0,0-0.1,0-0.1c0,0,0,0,0,0c0,0,0.1,0,0.1,0c0,0,0.1,0,0.2,0
			h2.5c0,0,0.1,0,0.1,0.1l0.8,3.7c0,0,0,0.1-0.1,0.1H8.8z M12.8,18.4h-2.3c-0.6,0-0.7-0.5-0.7-0.6l-0.1-0.3c0,0,0-0.1,0-0.2L9,13.7
			c0,0,0-0.1,0.1-0.1h2.7c0,0,0.1,0,0.1,0.1L12.8,18.4C12.9,18.3,12.8,18.4,12.8,18.4z M17.2,18.3C17.2,18.3,17.1,18.4,17.2,18.3
			l-2.6,0.1c0,0-0.1,0-0.1-0.1l-0.9-4.6c0,0,0-0.1,0.1-0.1h3.5c0,0,0.1,0,0.1,0.1V18.3z M17.2,12C17.2,12,17.1,12.1,17.2,12
			l-3.9,0.1c0,0-0.1,0-0.1-0.1l-0.8-3.7c0,0,0-0.1,0.1-0.1h4.6c0,0,0.1,0,0.1,0.1V12z M21.5,18.3C21.5,18.3,21.4,18.4,21.5,18.3
			l-2.7,0.1c0,0-0.1,0-0.1-0.1v-4.6c0,0,0-0.1,0.1-0.1h3.5c0,0,0.1,0,0.1,0.1L21.5,18.3z M22.6,12.1h-3.8c0,0-0.1,0-0.1-0.1V8.3
			c0,0,0-0.1,0.1-0.1h4.6c0,0,0.1,0,0.1,0.1L22.6,12.1C22.7,12,22.7,12.1,22.6,12.1z M25.6,17.8c0,0-0.1,0.6-0.7,0.6h-1.8
			c0,0-0.1,0-0.1-0.1l0.9-4.6c0,0,0.1-0.1,0.1-0.1h2.3c0,0,0.1,0,0.1,0.1C26.4,13.7,25.8,16.8,25.6,17.8z M27.5,8.5L26.8,12
			c0,0,0,0.1-0.1,0.1h-2.3c0,0-0.1,0-0.1-0.1l0.8-3.7c0,0,0.1-0.1,0.1-0.1h2c0,0,0.1,0,0.2,0c0,0,0.1,0,0.1,0c0,0,0,0.1,0,0.1
			C27.5,8.4,27.5,8.4,27.5,8.5z"/>
	</g>
</g>
</svg>
