<?xml version="1.0" encoding="utf-8"?>
<!-- Generator: Adobe Illustrator 18.1.1, SVG Export Plug-In . SVG Version: 6.00 Build 0)  -->
<!DOCTYPE svg PUBLIC "-//W3C//DTD SVG 1.1//EN" "http://www.w3.org/Graphics/SVG/1.1/DTD/svg11.dtd">
<svg version="1.1" id="Calque_1" xmlns="http://www.w3.org/2000/svg" xmlns:xlink="http://www.w3.org/1999/xlink" x="0px" y="0px"
	 width="612px" height="612px" viewBox="0 0 612 612" style="enable-background:new 0 0 612 612;" xml:space="preserve">
<style type="text/css">
	.st0{fill:#B6BCC0;}
</style>
<g>
	<g>
		<path class="st0" d="M559.2,0H52.8C23.6,0,0,23.6,0,52.8v506.5C0,588.4,23.6,612,52.8,612h506.5c29.1,0,52.8-23.6,52.8-52.8V52.8
			C612,23.6,588.4,0,559.2,0z M559.2,590.9H52.8c-17.5,0-31.7-14.1-31.7-31.7V52.8c0-17.5,14.1-31.7,31.7-31.7h506.5
			c17.5,0,31.7,14.1,31.7,31.7v506.5h0C590.9,576.8,576.8,590.9,559.2,590.9z M517,316.6c5.9,0,10.6-4.6,10.6-10.6
			s-4.6-10.6-10.6-10.6h-31.7V211H517c5.9,0,10.6-4.6,10.6-10.6c0-5.9-4.6-10.6-10.6-10.6h-31.7v-50.6c0-29.1-23.6-52.8-52.8-52.8
			H137.2c-29.1,0-52.8,23.6-52.8,52.8v333.4c0,29.1,23.6,52.8,52.8,52.8h295.4c29.1,0,52.8-23.6,52.8-52.8v-50.6H517
			c5.9,0,10.6-4.6,10.6-10.6c0-5.9-4.6-10.6-10.6-10.6h-31.7v-84.4H517z M464.3,189.9h-31.7c-5.9,0-10.6,4.6-10.6,10.6
			c0,5.9,4.6,10.6,10.6,10.6h31.7v84.4h-31.7c-5.9,0-10.6,4.6-10.6,10.6c0,5.9,4.6,10.6,10.6,10.6h31.7V401h-31.7
			c-5.9,0-10.6,4.6-10.6,10.6c0,5.9,4.6,10.6,10.6,10.6h31.7v50.6c0,17.5-14.1,31.7-31.7,31.7H137.2c-17.5,0-31.7-14.1-31.7-31.7
			V139.3c0-17.5,14.1-31.7,31.7-31.7h295.4c17.5,0,31.7,14.1,31.7,31.7V189.9z M213.1,232.1c-40.7,0-73.9,33.1-73.9,73.9
			c0,40.7,33.1,73.9,73.9,73.9c40.7,0,73.9-33.1,73.9-73.9C287,265.3,253.9,232.1,213.1,232.1z M213.1,358.8
			c-29.1,0-52.8-23.6-52.8-52.8s23.6-52.8,52.8-52.8c29.1,0,52.8,23.6,52.8,52.8S242.3,358.8,213.1,358.8z M213.1,269.1
			c-20.3,0-36.9,16.7-36.9,36.9c0,3,2.3,5.3,5.3,5.3c3,0,5.3-2.3,5.3-5.3c0-14.6,11.8-26.4,26.4-26.4c3,0,5.3-2.3,5.3-5.3
			C218.4,271.4,216.1,269.1,213.1,269.1z"/>
	</g>
</g>
</svg>
