<svg xmlns="http://www.w3.org/2000/svg" width="17" height="17" viewBox="0 0 17 17">
  <defs>
    <style>
      .cls-1 {
        fill: #b6bcc0;
        fill-rule: evenodd;
      }
    </style>
  </defs>
  <path id="Forma_1" data-name="Forma 1" class="cls-1" d="M1264.08,185.718a0.714,0.714,0,0,0-.7-0.718h-5.67a0.716,0.716,0,0,0-.71.718v5.747a0.716,0.716,0,0,0,.71.718h5.67a0.714,0.714,0,0,0,.7-0.718v-5.747Zm-5.66.719h4.25v4.309h-4.25v-4.309Zm15.58-.719a0.716,0.716,0,0,0-.71-0.718h-5.67a0.714,0.714,0,0,0-.7.718v5.747a0.714,0.714,0,0,0,.7.718h5.67a0.716,0.716,0,0,0,.71-0.718v-5.747Zm-5.67.719h4.25v4.309h-4.25v-4.309Zm-4.25,9.1a0.714,0.714,0,0,0-.7-0.718h-5.67a0.716,0.716,0,0,0-.71.718v5.747a0.716,0.716,0,0,0,.71.718h5.67a0.714,0.714,0,0,0,.7-0.718v-5.747Zm-5.66.719h4.25v4.309h-4.25v-4.309Zm15.58-.719a0.716,0.716,0,0,0-.71-0.718h-5.67a0.714,0.714,0,0,0-.7.718v5.747a0.714,0.714,0,0,0,.7.718h5.67a0.716,0.716,0,0,0,.71-0.718v-5.747Zm-5.67.719h4.25v4.309h-4.25v-4.309Z" transform="translate(-1257 -185)"/>
</svg>
