<svg xmlns="http://www.w3.org/2000/svg" width="21" height="16" viewBox="0 0 21 16">
  <defs>
    <style>
      .cls-1 {
        fill: #b6bcc0;
        fill-rule: evenodd;
      }
    </style>
  </defs>
  <path id="Forma_1" data-name="Forma 1" class="cls-1" d="M1297.85,188.192a2.437,2.437,0,1,1-2.42-2.194A2.314,2.314,0,0,1,1297.85,188.192Zm-2.42,8.947a2.205,2.205,0,1,0,2.42,2.194A2.322,2.322,0,0,0,1295.43,197.139Zm6.05-9.632h11.8a0.653,0.653,0,1,0,0-1.3h-11.8A0.652,0.652,0,1,0,1301.48,187.507Zm0,3.173h7.66a0.653,0.653,0,1,0,0-1.3h-7.66A0.652,0.652,0,1,0,1301.48,190.68Zm11.8,6.85h-11.8a0.652,0.652,0,1,0,0,1.3h11.8A0.653,0.653,0,1,0,1313.28,197.53Zm-4.14,3.173h-7.66a0.652,0.652,0,1,0,0,1.3h7.66A0.653,0.653,0,1,0,1309.14,200.7Z" transform="translate(-1293 -186)"/>
</svg>
