<?xml version="1.0" encoding="utf-8"?>
<!-- Generator: Adobe Illustrator 18.1.1, SVG Export Plug-In . SVG Version: 6.00 Build 0)  -->
<!DOCTYPE svg PUBLIC "-//W3C//DTD SVG 1.1//EN" "http://www.w3.org/Graphics/SVG/1.1/DTD/svg11.dtd">
<svg version="1.1" id="Calque_1" xmlns="http://www.w3.org/2000/svg" xmlns:xlink="http://www.w3.org/1999/xlink" x="0px" y="0px"
	 width="188.9px" height="42.5px" viewBox="214.9 -18.4 188.9 42.5" style="enable-background:new 214.9 -18.4 188.9 42.5;"
	 xml:space="preserve">
<style type="text/css">
	.st0{fill:#000066;}
	.st1{fill:#FF9900;}
	.st2{fill:#BF0000;}
	.st3{fill:#FFFFFF;}
</style>
<g id="barCode">
	<path class="st0" d="M369.5,23.7V2.1h3.1v21.6 M373.8,2.1h1.2v21.6h-1.2V2.1z M384.8,2.1h1.2v21.6h-1.2V2.1z M376.2,2.1h1.2v21.6
		h-1.2V2.1z M380.5,2.1h3.1v21.6h-3.1V2.1z"/>
	<path class="st1" d="M387.3,2.1h3.1v21.6h-3.1V2.1z M391.5,2.1h3.1v21.6h-3.1V2.1z M395.8,2.1h1.2v21.6h-1.2V2.1z M400.1,2.1h1.2
		v21.6h-1.2V2.1z"/>
	<rect x="402.7" y="2.1" class="st1" width="1.2" height="21.6"/>
	<rect x="366.8" y="2.1" class="st0" width="1.2" height="21.6"/>
</g>
<g id="logo">
	<g id="priceMinister">
		<g id="Price">
			<path class="st0" d="M215.5,2.4h5.1c1.4,0,2.4,0.1,3.1,0.4c0.7,0.2,1.3,0.6,1.6,1c0.4,0.5,0.6,1,0.8,1.6c0.1,0.6,0.2,1.6,0.2,2.9
				v1.8c0,1.4-0.1,2.4-0.4,2.9c-0.2,0.6-0.7,1.1-1.4,1.4c-0.7,0.4-1.6,0.5-2.7,0.5h-1.4v8.5h-5V2.4z M220.5,6.1v5.4
				c0.1,0,0.3,0,0.4,0c0.5,0,0.8-0.1,0.9-0.4c0.2-0.2,0.3-0.8,0.3-1.5V7.8c0-0.7-0.1-1.2-0.3-1.4C221.7,6.2,221.2,6.1,220.5,6.1z"/>
			<path class="st0" d="M227.8,2.4h3.5c2.4,0,3.9,0.1,4.8,0.3c0.8,0.2,1.5,0.7,2.1,1.5c0.5,0.8,0.8,2.1,0.8,3.9
				c0,1.6-0.2,2.8-0.5,3.3c-0.4,0.6-1.1,0.9-2.2,1c1,0.3,1.6,0.6,2,1.1c0.4,0.5,0.5,0.9,0.6,1.2c0.1,0.4,0.1,1.4,0.1,3.1v5.6h-4.7
				v-7.1c0-1.1-0.1-1.8-0.2-2.1c-0.2-0.3-0.6-0.4-1.3-0.4v9.5h-5L227.8,2.4L227.8,2.4z M232.8,6.1v4.7c0.6,0,0.9-0.1,1.2-0.2
				c0.2-0.2,0.4-0.7,0.4-1.6V7.7c0-0.6-0.1-1.1-0.4-1.3C233.8,6.2,233.4,6.1,232.8,6.1z"/>
			<path class="st0" d="M245.9,2.4v21.2h-5V2.4C240.9,2.4,245.9,2.4,245.9,2.4z"/>
			<path class="st0" d="M259.7,11.7h-5V8c0-1.1-0.1-1.8-0.2-2c-0.1-0.3-0.4-0.4-0.7-0.4c-0.4,0-0.6,0.2-0.8,0.5
				c-0.1,0.4-0.2,1-0.2,2.1V18c0,1.1,0.1,1.7,0.2,2c0.1,0.3,0.4,0.5,0.8,0.5c0.4,0,0.6-0.2,0.7-0.5c0.1-0.3,0.2-1.1,0.2-2.2v-2.7h5
				v0.8c0,2.2-0.1,3.8-0.4,4.7c-0.3,0.9-0.9,1.7-1.9,2.4c-0.9,0.7-2.2,1.1-3.6,1.1c-1.5,0-2.7-0.3-3.7-0.9c-0.9-0.6-1.6-1.4-1.9-2.4
				c-0.3-1.1-0.5-2.6-0.5-4.7V9.9c0-1.5,0.1-2.7,0.1-3.4c0.1-0.8,0.4-1.5,0.8-2.2c0.5-0.7,1.1-1.2,1.9-1.6s1.8-0.6,2.9-0.6
				c1.5,0,2.7,0.3,3.7,0.9s1.6,1.4,1.9,2.4c0.3,0.9,0.5,2.4,0.5,4.4v1.9H259.7z"/>
			<path class="st0" d="M261.4,2.4h8.4v4.2h-3.4v4h3.1v4h-3.1v4.7h3.7v4.2h-8.7V2.4z"/>
		</g>
		<g id="Minister">
			<path class="st1" d="M287,2.4v21.2h-4.4V9.3l-1.8,14.3h-3.1l-1.8-14v14h-4.4V2.4h6.5c0.2,1.3,0.4,2.8,0.6,4.5l0.7,5.4l1.2-9.9
				L287,2.4L287,2.4z"/>
			<path class="st1" d="M294,2.4v21.2h-5V2.4C289,2.4,294,2.4,294,2.4z"/>
			<path class="st1" d="M307.3,2.4v21.2h-4.4l-2.6-9.6v9.7h-4.2V2.5h4.2l2.8,9.5V2.4H307.3z"/>
			<path class="st1" d="M314.3,2.4v21.2h-5V2.4C309.3,2.4,314.3,2.4,314.3,2.4z"/>
			<path class="st1" d="M326.9,8.8h-4.7V7.3c0-0.7-0.1-1.2-0.2-1.4c-0.1-0.2-0.3-0.3-0.6-0.3S321,5.7,320.8,6
				c-0.2,0.3-0.2,0.7-0.2,1.2c0,0.7,0.1,1.2,0.2,1.6c0.2,0.4,0.6,0.8,1.4,1.3c2.2,1.5,3.7,2.7,4.2,3.6c0.6,0.9,0.9,2.4,0.9,4.5
				c0,1.5-0.2,2.7-0.5,3.4c-0.3,0.7-0.9,1.3-1.9,1.8c-0.9,0.5-2,0.7-3.2,0.7c-1.4,0-2.5-0.3-3.4-0.8c-0.9-0.5-1.6-1.3-1.9-2.1
				c-0.3-0.9-0.4-2.1-0.4-3.7V16h4.7v2.6c0,0.8,0.1,1.3,0.2,1.5c0.1,0.2,0.4,0.4,0.7,0.4c0.4,0,0.6-0.1,0.8-0.4
				c0.2-0.3,0.2-0.7,0.2-1.3c0-1.2-0.2-2.1-0.5-2.5c-0.3-0.4-1.1-1-2.4-1.9c-1.2-0.9-2.1-1.6-2.5-2c-0.4-0.4-0.8-1-1-1.7
				c-0.2-0.7-0.4-1.6-0.4-2.8c0-1.6,0.2-2.8,0.6-3.5c0.4-0.8,1-1.4,1.8-1.8c0.8-0.4,1.9-0.6,3.1-0.6c1.3,0,2.4,0.2,3.3,0.7
				c0.9,0.5,1.5,1.1,1.8,1.8c0.3,0.7,0.5,1.9,0.5,3.6V8.8L326.9,8.8z"/>
			<path class="st1" d="M339,2.4v4.2h-3v17h-5v-17H328V2.4H339z"/>
			<path class="st1" d="M340.2,2.4h8.4v4.2h-3.4v4h3.1v4h-3.1v4.7h3.7v4.2h-8.7L340.2,2.4L340.2,2.4z"/>
			<path class="st1" d="M350.3,2.4h3.5c2.4,0,3.9,0.1,4.8,0.3c0.8,0.2,1.5,0.7,2.1,1.5c0.5,0.8,0.8,2.1,0.8,3.9
				c0,1.6-0.2,2.8-0.6,3.3c-0.4,0.6-1.1,0.9-2.2,1c1,0.3,1.6,0.6,2,1.1c0.4,0.5,0.5,0.9,0.6,1.2c0.1,0.4,0.1,1.4,0.1,3.1v5.6h-4.7
				v-7.1c0-1.1-0.1-1.8-0.2-2.1c-0.2-0.3-0.6-0.4-1.3-0.4v9.5h-5V2.4L350.3,2.4z M355.3,6.1v4.7c0.6,0,0.9-0.1,1.2-0.2
				c0.2-0.2,0.4-0.7,0.4-1.6V7.7c0-0.6-0.1-1.1-0.4-1.3C356.3,6.2,355.9,6.1,355.3,6.1z"/>
		</g>
	</g>
	<g id="rakutenGroup">
		<g>
			<g>
				<path d="M284.7-7.1c-0.1,0.3-0.5,0.7-1.1,0.7c-0.4,0-1.1-0.3-1.1-1.3v-4.6h3.7v-2.5h-3.7v-2.7H280v2.7h-1.8v2.5h1.8v4.6
					c0,2.4,1.9,3.8,3.7,3.8c1.8,0,3.1-1.2,3.5-2.6L284.7-7.1z"/>
				<polygon points="266.7,-4.2 261,-9.8 266,-14.8 262.4,-14.8 258.6,-10.9 258.6,-18.4 256.1,-18.4 256.1,-4.2 258.6,-4.2 
					258.6,-8.7 263.1,-4.2 				"/>
				<path d="M250.7-14.8v0.5c-0.7-0.5-1.6-0.7-2.5-0.7c-2.7,0-5,2.5-5,5.5s2.2,5.6,5,5.6c0.9,0,1.7-0.3,2.5-0.7v0.5h2.5v-10.7H250.7
					z M248.2-6.5c-1.4,0-2.5-1.4-2.5-3.1s1.1-3.1,2.5-3.1s2.5,1.4,2.5,3.1S249.6-6.5,248.2-6.5z"/>
				<path d="M273.8-14.8v6.2c0,1.2-0.9,2.1-2.1,2.1s-2.1-0.9-2.1-2.1v-6.2h-2.5v6.2c0,2.6,2.1,4.7,4.7,4.7c0.8,0,1.5-0.2,2.1-0.5
					v0.2h2.5v-10.6H273.8z"/>
				<path d="M304.5-15.1c-0.8,0-1.5,0.2-2.1,0.5v-0.3h-2.5v10.7h2.5v-6.2c0-1.2,0.9-2.1,2.1-2.1c1.2,0,2.1,0.9,2.1,2.1v6.2h2.5v-6.2
					C309.1-13,307.1-15.1,304.5-15.1z"/>
				<path d="M234.9-4.2v-4.1h1.8l3.1,4.1h3.2l-3.8-5c1.2-0.8,1.9-2.2,1.9-3.7c0-2.5-2.1-4.6-4.6-4.6h-4.2v13.3H234.9z M234.9-15h1.6
					c1.1,0,2.1,0.9,2.1,2.1s-0.9,2.1-2.1,2.1h-1.6V-15z"/>
				<path d="M297.9-9.5c0-3.1-2.2-5.6-5-5.6c-2.8,0-5,2.5-5,5.6c0,3.3,2.8,5.6,5.4,5.6c1.3,0,3-0.4,4.4-2.4l-2.2-1.3
					c-1.9,2.3-4.5,0.7-4.7-1.2h7.1C297.8-9,297.9-9.2,297.9-9.5z M295-11h-4.2C291.2-13.1,294.5-13.5,295-11z"/>
			</g>
			<g>
				<path class="st2" d="M229.5-10.8c0,4-3.2,7.2-7.2,7.2c-4.1,0-7.3-3.2-7.3-7.2s3.2-7.2,7.2-7.2C226.2-18.1,229.5-14.8,229.5-10.8
					"/>
				<path class="st3" d="M221.3-6.9v-2.4h1.1l1.8,2.4h1.9l-2.2-2.9c0.7-0.5,1.1-1.3,1.1-2.2c0-1.5-1.2-2.7-2.7-2.7h-2.5v7.8H221.3z
					 M221.3-13.2h0.9c0.6,0,1.2,0.5,1.2,1.2c0,0.6-0.5,1.2-1.2,1.2h-0.9C221.3-10.8,221.3-13.2,221.3-13.2z"/>
			</g>
		</g>
		<g>
			<path d="M322.5-14.8h1.3v9.9c0,2.9-1.3,4.5-4.2,4.5c-2.5,0-3.8-1.1-3.8-2.6h1.5c0,1,1.1,1.6,2.4,1.6c1.8,0,2.7-1,2.7-2.9v-1.7
				h-0.1c-0.5,1.3-1.6,1.9-3,1.9c-2,0-3.9-1.1-3.9-5.4c0-3.7,1.3-5.5,4.1-5.5c1.4,0,2.5,0.7,3,1.9h0.1V-14.8z M319.6-5.2
				c1.7,0,2.7-1.1,2.7-4.5c0-3.4-1-4.4-2.7-4.4s-2.7,1.1-2.7,4.4C316.9-6.2,317.9-5.2,319.6-5.2z"/>
			<path d="M326.1-14.8h1.5v1.6h0.1c0.5-1.2,1.7-1.9,3.2-1.9c0.2,0,0.4,0,0.5,0.1v1.2c-0.2-0.1-0.5-0.1-0.7-0.1
				c-1.6,0-3.1,0.9-3.1,3v6.7h-1.5L326.1-14.8L326.1-14.8z"/>
			<path d="M336.5-15.1c2.8,0,4.4,1.8,4.4,5.5c0,3.8-1.6,5.6-4.4,5.6s-4.4-1.8-4.4-5.6C332.1-13.2,333.7-15.1,336.5-15.1z
				 M336.5-4.9c1.6,0,2.9-1.1,2.9-4.6c0-3.4-1.2-4.5-2.9-4.5s-2.9,1.2-2.9,4.5C333.6-6.1,334.9-4.9,336.5-4.9z"/>
			<path d="M342.7-14.8h1.5v7.5c0,1.8,0.6,2.4,2.2,2.4c1.6,0,2.8-1.1,2.8-2.7v-7.2h1.5v10.7h-1.3v-1.5h-0.1
				c-0.8,1.2-1.9,1.7-3.3,1.7c-1.9,0-3.3-0.8-3.3-2.8L342.7-14.8L342.7-14.8z"/>
			<path d="M352.9-14.8h1.3v1.5h0.1c0.5-1,1.5-1.8,3.2-1.8c2.9,0,4.1,1.9,4.1,5.6s-1.3,5.5-4.1,5.5c-1.6,0-2.7-0.7-3-1.8h-0.1v5.1
				h-1.5V-14.8L352.9-14.8z M357.2-14.1c-0.8,0-1.5,0.4-2,0.9c-0.6,0.8-0.8,1.8-0.8,3.7c0,3.9,1.3,4.5,2.8,4.5
				c1.5,0,2.8-0.6,2.8-4.5C360-13.4,358.6-14.1,357.2-14.1z"/>
		</g>
	</g>
</g>
</svg>
