<?xml version="1.0" encoding="utf-8"?>
<!-- Generator: Adobe Illustrator 18.1.1, SVG Export Plug-In . SVG Version: 6.00 Build 0)  -->
<!DOCTYPE svg PUBLIC "-//W3C//DTD SVG 1.1//EN" "http://www.w3.org/Graphics/SVG/1.1/DTD/svg11.dtd">
<svg version="1.1" id="Calque_1" xmlns="http://www.w3.org/2000/svg" xmlns:xlink="http://www.w3.org/1999/xlink" x="0px" y="0px"
	 width="37px" height="42px" viewBox="0 0 37 42" style="enable-background:new 0 0 37 42;" xml:space="preserve">
<style type="text/css">
	.st0{fill:#B6BCC0;}
</style>
<g>
	<g>
		<path class="st0" d="M30.1,16.5c-0.1-0.1-0.3-0.1-0.4-0.1c0,0-0.1,0-0.1,0c-0.2-0.1-0.4-0.2-0.7-0.2c-0.5,0-0.9,0.3-1.1,0.9
			c-0.1,0.5,0,0.9,0.1,1.1c0.1,0.2,0.4,0.5,1,0.6c0.1,0,0.3,0,0.5,0l0.3,0l0.1,0c0,0,0,0,0.1,0l0.2,0c0.9,0,1.1-0.6,1.1-0.9
			C31.2,17.5,31.1,16.9,30.1,16.5z M25,2.9h-5.9c-1.4,0-2.6,1.2-2.6,2.6c0,1.4,1.1,2.6,2.6,2.6H25c1.4,0,2.6-1.2,2.6-2.6
			C27.6,4,26.5,2.9,25,2.9z M36.6,8.1c-0.2-0.2-4-4.6-6.8-6c-2-1-2.9-1.4-4.5-1.7C24.1,0.1,23,0,22,0c-1.6,0-3,0.3-4.4,0.9
			c-2.4,1-3.5,3.5-2.8,6.2c0.5,2.1,2.2,3.1,3.4,4c1.1,0.7,2.2,1.2,3.2,1.4c0.9,0.2,1.4,0.6,1.7,1.4c0.3,0.8,0.2,1.7,0.1,2.7l0,0.1
			c0,0.2-0.1,0.6-0.2,1.1c-0.4,1.8-0.7,3-0.2,3.7c0.2,0.3,0.5,0.5,0.9,0.5c0.3,0,0.5-0.1,0.8-0.2c0.1,2.8,0.3,5.6,0.4,8.5l0.1,3.1
			c0,0.1,0,0.2,0,0.3c0,0.1,0,0.2,0,0.2c-1.2,1.4-2.1,2.4-2.2,4.4c-0.2,1.8,0.7,3.2,2.1,3.7c0.4,0.1,0.9,0.2,1.3,0.2
			c0.2,0,0.5,0,0.8-0.1c0.2,0,0.5-0.1,0.7-0.2l1.3-0.4c0.6-0.3,1.2-0.6,1.7-0.9c1.1-0.6,1.8-1.6,2.2-3c0.1-0.2,0.1-0.4,0.2-0.6
			c0.2-0.5,0.3-1,0.4-1.5c0.4-1.9,0.6-3.8,0.7-5.7c0-0.6,0.1-1.3,0.1-1.9c0.2-2.3,0.2-6.9,0.2-7.1l0,0c-0.1-1.4-0.1-2.9-0.1-4.3
			c0-0.8,0-1.6,0-2.4l0-0.1c0-0.2,0-0.4,0-0.5c0.3-0.3,0.5-0.7,0.8-1c0.3-0.4,0.6-0.8,1-1.1C37,10.5,37.3,9,36.6,8.1z M32.9,27.7
			c-0.1,0.6-0.1,1.3-0.1,1.9c-0.1,1.8-0.2,3.7-0.7,5.5c-0.1,0.5-0.3,0.9-0.4,1.4c-0.1,0.2-0.1,0.4-0.2,0.6c-0.3,1-0.8,1.7-1.6,2.2
			c-0.9,0.6-2,1.1-3.2,1.3c-0.5,0.1-1,0-1.5-0.1c-1.2-0.4-1.2-1.7-1.2-2.3c0.1-1.6,0.8-2.3,1.9-3.6c0.4-0.5,0.4-1,0.3-1.2
			c0,0,0,0,0,0c0.8-2.7,3.4-9.1,6.7-9.9C33,24.9,33,26.6,32.9,27.7z M35.3,10.2c-0.5,0.4-0.8,0.9-1.2,1.4c-0.2,0.3-0.4,0.6-0.7,0.9
			c-0.4,0.5-0.4,1-0.4,1.4v0.1c0,0.8,0,1.6,0,2.4c0,1.4,0,2.9,0.1,4.4c0,0.1,0,0.6,0,1.4c-3.2,0.5-5.6,4.7-6.9,7.8
			c-0.1-3.1-0.3-6-0.4-9c0-0.5-0.4-0.9-0.9-0.9c-0.3,0-0.5,0.1-0.8,0.2c-0.1,0-0.1,0.1-0.2,0.1c0-0.6,0.3-1.8,0.4-2.4
			c0.1-0.6,0.2-1,0.3-1.3l0-0.1c0.1-1.1,0.2-2.1-0.2-3.3c-0.4-1.3-1.4-2.1-2.7-2.3c-0.9-0.2-1.7-0.5-2.7-1.2
			c-1.4-0.9-2.5-1.7-2.9-3.2c-0.4-1.6-0.1-3.6,2-4.6c1.2-0.5,2.4-0.8,3.8-0.8c0.9,0,1.9,0.1,3.1,0.3c1.5,0.3,2.3,0.6,4.1,1.6
			c2.5,1.3,6.3,5.6,6.3,5.7C35.7,9.2,35.6,9.9,35.3,10.2z M0,31.6h0.9V18.1H0V31.6z M10.5,31.6h0.9V18.1h-0.9V31.6z M2.2,31.6h0.5
			V18.1H2.2V31.6z M11.8,31.6h0.5V18.1h-0.5V31.6z M9.1,31.6h0.5V18.1H9.1V31.6z M6.9,31.6h0.5V18.1H6.9V31.6z M3.7,31.6h0.9V18.1
			H3.7V31.6z M7.7,31.6h0.9V18.1H7.7V31.6z M4.9,31.6h0.5V18.1H4.9V31.6z M13,31.6h0.5V18.1H13V31.6z M14.6,31.6h0.9V18.1h-0.9V31.6
			z M15.8,31.6h0.5V18.1h-0.5V31.6z"/>
	</g>
</g>
</svg>
