<?xml version="1.0" encoding="utf-8"?>
<!-- Generator: Adobe Illustrator 19.2.0, SVG Export Plug-In . SVG Version: 6.00 Build 0)  -->
<svg version="1.1" id="Calque_1" xmlns="http://www.w3.org/2000/svg" xmlns:xlink="http://www.w3.org/1999/xlink" x="0px" y="0px"
	 viewBox="0 0 19 16" style="enable-background:new 0 0 19 16;" xml:space="preserve">
<style type="text/css">
	.st0{fill:#CED4D8;}
</style>
<path id="Forma_1_copie_7" class="st0" d="M17.2,6.8L13.1,10l1.6,5.1c0.1,0.3,0,0.6-0.2,0.8c-0.2,0.2-0.5,0.2-0.8,0l-4.2-3.2
	l-4.2,3.2c-0.2,0.2-0.5,0.2-0.8,0c-0.2-0.2-0.3-0.5-0.2-0.8L5.9,10L1.8,6.8C1.6,6.6,1.5,6.3,1.6,6.1c0.1-0.3,0.3-0.5,0.6-0.5h5.1
	l1.6-5.1C9,0.1,9.3-0.1,9.7,0c0.2,0.1,0.4,0.2,0.4,0.4l1.6,5.1h5.1c0.3,0,0.5,0.2,0.6,0.5C17.5,6.3,17.4,6.6,17.2,6.8z"/>
</svg>
