<?xml version="1.0" encoding="utf-8"?>
<!-- Generator: Adobe Illustrator 18.1.1, SVG Export Plug-In . SVG Version: 6.00 Build 0)  -->
<!DOCTYPE svg PUBLIC "-//W3C//DTD SVG 1.1//EN" "http://www.w3.org/Graphics/SVG/1.1/DTD/svg11.dtd">
<svg version="1.1" id="Calque_1" xmlns="http://www.w3.org/2000/svg" xmlns:xlink="http://www.w3.org/1999/xlink" x="0px" y="0px"
	 width="15px" height="15px" viewBox="0 0 15 15" style="enable-background:new 0 0 15 15;" xml:space="preserve">
<style type="text/css">
	.st0{fill:#FAB546;}
</style>
<path class="st0" d="M14.8,6.4l-3.9,3l1.5,4.8c0.1,0.3,0,0.5-0.2,0.7C12,15,11.9,15,11.8,15c-0.1,0-0.2,0-0.4-0.1l-3.9-3l-3.9,3
	c-0.2,0.2-0.5,0.2-0.7,0c-0.2-0.2-0.3-0.4-0.2-0.7l1.5-4.8l-3.9-3C0,6.2-0.1,5.9,0,5.7c0.1-0.3,0.3-0.4,0.6-0.4h4.8l1.5-4.8
	C7,0.2,7.2,0,7.5,0C7.8,0,8,0.2,8.1,0.4l1.5,4.8h4.8c0.3,0,0.5,0.2,0.6,0.4C15.1,5.9,15,6.2,14.8,6.4z"/>
</svg>
