<?xml version="1.0" encoding="utf-8"?>
<!-- Generator: Adobe Illustrator 19.2.0, SVG Export Plug-In . SVG Version: 6.00 Build 0)  -->
<svg version="1.1" id="Calque_1" xmlns="http://www.w3.org/2000/svg" xmlns:xlink="http://www.w3.org/1999/xlink" x="0px" y="0px"
	 viewBox="0 0 26 26" style="enable-background:new 0 0 26 26;" xml:space="preserve">
<style type="text/css">
	.st0{fill:#B6BCC0;}
</style>
<path class="st0" d="M13,16.8c3.2,0,5.8-3.2,5.8-7c0-3.9-2.6-7-5.8-7c-1.6,0-3,0.8-4.1,2.1C7.8,6.2,7.2,7.9,7.2,9.8
	C7.2,13.7,9.8,16.8,13,16.8z M13,4c2.5,0,4.5,2.6,4.5,5.8c0,3.2-2,5.8-4.5,5.8c-2.5,0-4.5-2.6-4.5-5.8C8.5,6.6,10.5,4,13,4z
	 M17.5,15.6c-0.4,0-0.6,0.3-0.6,0.6c0,0.4,0.3,0.6,0.6,0.6c2.5,0,4.5,2,4.5,4.5c0,0.4-0.3,0.6-0.6,0.6H4.7C4.3,22,4,21.7,4,21.3
	c0-2.5,2-4.5,4.5-4.5c0.4,0,0.6-0.3,0.6-0.6c0-0.4-0.3-0.6-0.6-0.6c-3.2,0-5.8,2.6-5.8,5.8c0,1.1,0.9,1.9,1.9,1.9h16.7
	c1.1,0,1.9-0.9,1.9-1.9C23.2,18.1,20.7,15.6,17.5,15.6z"/>
</svg>
